<svg xmlns="http://www.w3.org/2000/svg" viewBox="0 0 24 24" fill="#FFA500" stroke="#FFA500" stroke-width="2" stroke-linecap="round" stroke-linejoin="round">
  <path d="M12 2a3 3 0 0 0-3 3c0 1.5 1.5 3 3 3s3-1.5 3-3a3 3 0 0 0-3-3z"></path>
  <path d="M19 6a2.5 2.5 0 0 0-2.5 2.5c0 1.25 1.25 2.5 2.5 2.5s2.5-1.25 2.5-2.5A2.5 2.5 0 0 0 19 6z"></path>
  <path d="M5 6A2.5 2.5 0 0 0 2.5 8.5C2.5 9.75 3.75 11 5 11s2.5-1.25 2.5-2.5A2.5 2.5 0 0 0 5 6z"></path>
  <path d="M12 10c-3.5 0-6 2.5-6 6 0 3.5 2.5 6 6 6s6-2.5 6-6c0-3.5-2.5-6-6-6z"></path>
</svg>